<?xml version="1.0" encoding="utf-8"?>
<!-- Generator: Adobe Illustrator 16.0.0, SVG Export Plug-In . SVG Version: 6.00 Build 0)  -->
<!DOCTYPE svg PUBLIC "-//W3C//DTD SVG 1.1//EN" "http://www.w3.org/Graphics/SVG/1.1/DTD/svg11.dtd">
<svg version="1.1" id="Layer_1" xmlns="http://www.w3.org/2000/svg" xmlns:xlink="http://www.w3.org/1999/xlink" x="0px" y="0px"
	 width="300px" height="200px" viewBox="0 0 300 200" style="enable-background:new 0 0 300 200;" xml:space="preserve">
<g>
	<defs>
		<rect id="SVGID_1_" x="27" y="49.5" width="246" height="101"/>
	</defs>
	<clipPath id="SVGID_2_">
		<use xlink:href="#SVGID_1_"  style="overflow:visible;"/>
	</clipPath>
	<path style="clip-path:url(#SVGID_2_);fill:#D71921;" d="M66.347168,74.7807617h6.4960938l0.7290039-5.0239258H61.8251953
		l-2.3588867,16.8081055c1.8647461-1.1591797,3.7670898-2.2382812,5.6860352-3.2802734L66.347168,74.7807617z"/>
	<path style="clip-path:url(#SVGID_2_);fill:#D71921;" d="M266.2089844,69.7602539
		c-13.3066406,13.1279297-28.3310547,24.2158203-44.7255859,33.081543
		c-0.8720703,0.4726562-1.7509766,0.9257812-2.6279297,1.3857422c-0.2041016-0.8789062-0.3339844-1.1943359-0.7578125-3.3964844
		c-0.5498047-2.824707-1.1025391-5.6469727-1.6689453-8.4726562c1.5068359-0.4140625,2.5693359-1.1591797,3.1943359-2.234375
		c0.6181641-1.0717773,1.0644531-2.4560547,1.3310547-4.1547852L222.25,76.53125
		c0.1503906-1.0141602,0.1865234-1.9399414,0.1083984-2.7641602c-0.0712891-0.8291016-0.3212891-1.5458984-0.7294922-2.1479492
		c-0.4121094-0.6020508-1.0273438-1.0688477-1.8378906-1.3867188c-0.8105469-0.3193359-1.8925781-0.4760742-3.2490234-0.4760742
		h-7.9160156l-5.5351562,39.5522461h5.2568359l2.3164062-16.7255859h0.7929688
		c0.4130859,2.8232422,0.8349609,5.6220703,1.2714844,8.394043c0.3291016,2.1206055,0.6542969,4.2446289,0.8974609,5.9125977
		c-21.6972656,10.6816406-45.0097656,17.9208984-68.7651367,22.125c-13.3359375,2.3476562-26.828125,3.8808594-40.3300781,4.3769531
		c-6.7509766,0.2431641-13.5048828,0.2167969-20.222168-0.1787109c-6.7099609-0.4013672-13.4038086-1.1582031-19.9008789-2.5673828
		c-3.2416992-0.7099609-6.4399414-1.5898438-9.4838867-2.7402344c-3.0288086-1.1523438-5.9501953-2.5830078-8.3208008-4.4667969
		c-2.3842773-1.8857422-3.9379883-5.1386719-4.1552734-7.7636719c-0.5678711-7.5966797,6.4619141-15.5976562,16.0039062-21.8457031
		l-2.1679688,15.4794922h5.2519531l2.4272461-17.5732422l0.1806641-1.2719727
		c2.2260742-1.1860352,4.5234375-2.2729492,6.8413086-3.2363281l0.987793-5.9067383
		c-5.7470703,2.7148438-11.3427734,5.7988281-16.6308594,9.4599609c-2.8808594,2.0039062-5.6708984,4.1821289-8.269043,6.6391602
		c-2.5859375,2.4628906-5.0180664,5.1938477-6.9257812,8.4399414c-1.8759766,3.2021484-3.2460938,7.1699219-2.722168,11.3154297
		c0.2260742,2.0507812,1.0439453,4.1279297,2.1821289,5.7949219c1.1430664,1.6923828,2.5649414,3.0683594,4.0639648,4.2207031
		c3.019043,2.2958984,6.3359375,3.7998047,9.6777344,5.0097656c3.3442383,1.1953125,6.7470703,2.0605469,10.1630859,2.7441406
		c6.8330078,1.3554688,13.7241211,2,20.597168,2.2919922c6.8769531,0.2792969,13.7451172,0.1816406,20.5888672-0.1875
		c13.6879883-0.7480469,27.277832-2.5449219,40.6982422-5.1552734c26.8354492-5.2470703,52.9975586-14.3222656,76.793457-27.7705078
		c16.46875-9.2880859,32.0234375-20.8339844,45.1962891-34.362793H266.2089844z M211.3398438,87.78125l1.8115234-13h2.2011719
		c1.3203125,0,1.8691406,0.6591797,1.6425781,1.9780273l-1.2431641,9.0429688
		c-0.078125,0.6450195-0.2744141,1.1298828-0.5976562,1.4667969c-0.3183594,0.3413086-0.8369141,0.512207-1.5517578,0.512207
		H211.3398438z"/>
	<polygon style="clip-path:url(#SVGID_2_);fill:#D71921;" points="96.1733398,109.3085938 98.2753906,94.0507812 
		106.8564453,69.7568359 101.3134766,69.7568359 96.7495117,86.2553711 96.8652344,69.7568359 91.3193359,69.7568359 
		93.0161133,94.0507812 90.9213867,109.3085938 	"/>
	<path style="clip-path:url(#SVGID_2_);fill:#D71921;" d="M126.300293,108.8271484
		c0.9042969-0.3183594,1.6352539-0.7695312,2.2001953-1.3554688c0.5708008-0.5849609,0.9941406-1.2890625,1.2978516-2.1181641
		c0.3081055-0.828125,0.5322266-1.7529297,0.6850586-2.7685547l1.1870117-8.4194336
		c0.1831055-1.203125,0.1210938-2.2128906-0.1992188-3.0219727c-0.3227539-0.8110352-0.9335938-1.440918-1.8417969-1.8959961
		c0.9790039-0.4511719,1.7070312-1.0610352,2.1811523-1.8359375c0.4667969-0.7719727,0.7978516-1.7592773,0.987793-2.9643555
		l1.1860352-8.4799805c0.1508789-1.0136719,0.1918945-1.909668,0.112793-2.6806641
		c-0.0737305-0.7753906-0.3330078-1.4262695-0.7646484-1.953125c-0.4282227-0.5258789-1.0742188-0.9189453-1.9160156-1.1831055
		c-0.8540039-0.2670898-1.9570312-0.394043-3.3193359-0.394043h-7.6757812l-5.5410156,39.5522461h8.0219727
		C124.2612305,109.3085938,125.3916016,109.1513672,126.300293,108.8271484 M124.9462891,74.7802734h2.2583008
		c0.7900391,0,1.2578125,0.2119141,1.4086914,0.6220703c0.1508789,0.4189453,0.175293,1.0600586,0.0610352,1.9208984
		l-0.9619141,6.7250977c-0.1079102,0.8681641-0.3110352,1.5561523-0.5952148,2.0639648
		c-0.2836914,0.5048828-0.8320312,0.762207-1.6699219,0.762207h-2.1987305L124.9462891,74.7802734z M122.5654297,91.7353516
		h2.2670898c0.7480469,0,1.230957,0.1879883,1.4428711,0.5629883c0.2021484,0.375,0.2670898,0.8881836,0.1938477,1.5302734
		l-1.1899414,8.6459961c-0.1079102,0.640625-0.315918,1.1103516-0.6147461,1.4091797
		c-0.309082,0.3027344-0.7963867,0.4550781-1.4741211,0.4550781h-2.3720703L122.5654297,91.7353516z"/>
	<polygon style="clip-path:url(#SVGID_2_);fill:#D71921;" points="148.21875,104.3388672 141.4428711,104.3388672 
		143.1938477,91.7353516 149.0717773,91.7353516 149.7456055,86.8745117 143.8730469,86.8745117 145.5649414,74.7802734 
		152.3457031,74.7802734 153.0839844,69.7563477 141.0507812,69.7563477 135.515625,109.3085938 147.5478516,109.3085938 	"/>
	<polygon style="clip-path:url(#SVGID_2_);fill:#D71921;" points="160.5966797,109.3085938 165.4013672,74.7807617 
		169.8681641,74.7807617 170.6005859,69.7568359 156.4716797,69.7568359 155.7382812,74.7807617 160.1445312,74.7807617 
		155.3408203,109.3085938 	"/>
	<polygon style="clip-path:url(#SVGID_2_);fill:#D71921;" points="176.9892578,109.3085938 181.7871094,74.7807617 
		186.2548828,74.7807617 186.984375,69.7568359 172.8642578,69.7568359 172.1289062,74.7807617 176.53125,74.7807617 
		171.7314453,109.3085938 	"/>
	<polygon style="clip-path:url(#SVGID_2_);fill:#D71921;" points="197.7207031,109.3085938 198.4033203,104.3388672 
		191.6230469,104.3388672 193.3710938,91.7358398 199.2509766,91.7358398 199.9287109,86.8745117 194.0498047,86.8745117 
		195.7431641,74.7807617 202.5263672,74.7807617 203.2597656,69.7568359 191.2236328,69.7568359 185.6855469,109.3085938 	"/>
	<polygon style="clip-path:url(#SVGID_2_);fill:#D71921;" points="83.7988281,109.3085938 84.4819336,104.3388672 
		79.0556641,104.3388672 83.909668,69.7568359 78.6557617,69.7568359 73.1186523,109.3085938 	"/>
</g>
</svg>
